# xmcd
#
# Track frame offsets:
#	150
#	14644
#	26083
#	35231
#	46987
#	60780
#	72811
#	84678
#	95623
#	108164
#	123164
#	132707
#	147244
#	157768
#	173466
#	185783
#	200355
#	213295
#	223515
#	237472
#	250245
#	263208
#	275540
#	288487
#	300020
#	314351
#	327739
#	341590
#
# Disc length: 4720 seconds
#
# Revision: 3
# Processed by: cddbd v1.5.2PL0 Copyright (c) Steve Scherf et al.
# Submitted via: EZCDAudioConverter 7.0.5.1
#
DISCID=a0126e1c
DTITLE=Wanda Jackson - Tears Will Be The Chaser For Your Wine [CD6]
DYEAR=1997
DGENRE=Country
TTITLE0=Didn't He Shine
TTITLE1=Happy Tracks
TTITLE2=Chicken On The Ground
TTITLE3=Am I Not My Brother's Keeper
TTITLE4=Jubal
TTITLE5=Crazy
TTITLE6=Song Of The Wind
TTITLE7=Missing You
TTITLE8=The More You See Me Less
TTITLE9=Back Then
TTITLE10=Already Know (What I´M Getting For My Birthday)
TTITLE11=I Still Belong To You
TTITLE12=My Testimony
TTITLE13=The King Is Coming
TTITLE14=He's The Man
TTITLE15=How Great Thou Art
TTITLE16=I Wouldn't Want You Any Other Way
TTITLE17=I'll Be Whatever You Say
TTITLE18=Tennessee Women's Prison
TTITLE19=Roll With The Tide
TTITLE20=I Don't Know How To Tell Him
TTITLE21=I Don't Believe I'll Fall In Love Today
TTITLE22=He's My Everything
TTITLE23=Pass Me By
TTITLE24=You Took Him Off My Hands
TTITLE25=Reuben James
TTITLE26=A Wound Time Can't Erase
TTITLE27=Your Memory Comes And Gets Me
EXTD=
EXTT0=
EXTT1=
EXTT2=
EXTT3=
EXTT4=
EXTT5=
EXTT6=
EXTT7=
EXTT8=
EXTT9=
EXTT10=
EXTT11=
EXTT12=
EXTT13=
EXTT14=
EXTT15=
EXTT16=
EXTT17=
EXTT18=
EXTT19=
EXTT20=
EXTT21=
EXTT22=
EXTT23=
EXTT24=
EXTT25=
EXTT26=
EXTT27=
PLAYORDER=
